<?xml version="1.0" encoding="UTF-8"?>
<svg width="633px" height="159px" viewBox="0 0 633 159" version="1.1" xmlns="http://www.w3.org/2000/svg" xmlns:xlink="http://www.w3.org/1999/xlink">
    <!-- Generator: Sketch 49.1 (51147) - http://www.bohemiancoding.com/sketch -->
    <title>Shape</title>
    <desc>Created with Sketch.</desc>
    <defs></defs>
    <g id="Page-1" stroke="none" stroke-width="1" fill="none" fill-rule="evenodd">
        <g id="Logo_foscarini_white" fill="#222222" fill-rule="nonzero">
            <path d="M337.457,99.418 L345.542,33.463 L353.669,99.418 L337.457,99.418 Z M362.721,155.874 L384.762,155.874 L360.241,2.833 L330.777,2.833 L306.388,155.874 L328.461,155.874 L333.909,121.516 L357.214,121.516 L362.721,155.874 Z M416.383,71.715 L416.383,24.65 L424.221,24.65 C436.142,24.65 440.598,29.965 440.598,48.194 C440.598,66.39 436.142,71.715 424.221,71.715 L416.383,71.715 Z M465.87,156.123 L465.87,156.048 L464.646,151.501 L447.301,86.679 C454.75,82.611 462.661,72.632 462.661,48.195 C462.661,15.532 450.029,3.057 425.277,3.057 L394.31,3.057 L394.31,156.049 L416.383,156.049 L416.383,93.318 C419.615,93.318 423.336,93.161 426.106,92.88 L443.028,156.123 L465.87,156.123 Z M609.544,3.056 L632.924,3.056 L632.924,156.064 L609.544,156.064 L609.544,3.056 Z M477.154,3.056 L500.542,3.056 L500.542,156.064 L477.154,156.064 L477.154,3.056 Z M568.978,3.056 L568.978,88.414 L541.977,3.056 L519.913,3.056 L519.913,156.048 L541.977,156.048 L541.977,71.541 L568.854,155.774 L568.978,155.716 L568.978,156.047 L591.068,156.048 L591.068,3.056 L568.978,3.056 Z M277.884,54.131 L277.884,42.242 C277.884,29.312 272.61,23.79 266.574,23.79 C257.15,23.79 254.116,29.312 254.116,40.746 L254.116,118.308 C254.116,129.749 257.15,135.246 266.574,135.246 C275.056,135.246 277.884,129.749 277.884,119.787 L277.884,101.376 L301.272,101.376 L301.272,118.943 C301.272,140.57 289.946,158.146 266.575,158.146 C242.038,158.146 230.754,140.57 230.754,118.943 L230.754,40.117 C230.754,18.514 242.039,0.914 266.575,0.914 C289.946,0.914 301.272,19.995 301.272,42.894 L301.272,54.129 L277.884,54.129 L277.884,54.131 Z M199.784,40.746 C198.867,27.618 192.716,23.79 187.508,23.79 C180.043,23.79 174.917,29.312 174.917,38.869 C174.917,64.919 221.899,77.419 221.899,118.944 C221.899,144.159 206.96,158.147 185.309,158.147 C163.913,158.147 151.579,138.678 150.645,115.787 L172.644,112.183 C173.578,127.642 178.985,135.247 186.433,135.247 C194.477,135.247 199.875,130.403 199.875,121.276 C199.875,90.977 152.901,82.924 152.901,39.059 C152.901,14.712 165.963,0.914 188.681,0.914 C207.522,0.914 219.765,16.373 221.816,37.992 L199.784,40.746 Z M71.693,118.944 C71.693,140.571 82.903,158.147 107.126,158.147 C131.39,158.147 142.567,140.571 142.567,118.944 L142.567,40.118 C142.567,18.515 131.39,0.915 107.126,0.915 C82.903,0.915 71.693,18.516 71.693,40.118 L71.693,118.944 Z M94.833,40.746 C94.833,29.312 97.826,23.79 107.126,23.79 C116.451,23.79 119.452,29.312 119.452,40.746 L119.452,118.308 C119.452,129.749 116.451,135.246 107.126,135.246 C97.825,135.246 94.833,129.749 94.833,118.308 L94.833,40.746 Z M64.592,26.419 L64.592,2.999 L0.092,3.057 L0.092,156.049 L23.463,156.049 L23.463,88.737 L54.051,88.737 L54.051,65.358 L23.463,65.358 L23.463,26.42 L64.592,26.42 L64.592,26.419 Z" id="Shape"></path>
        </g>
    </g>
</svg>